<?xml version="1.0" encoding="UTF-8" standalone="no"?>
<!-- Created with Inkscape (http://www.inkscape.org/) -->

<svg
   xmlns:dc="http://purl.org/dc/elements/1.1/"
   xmlns:cc="http://creativecommons.org/ns#"
   xmlns:rdf="http://www.w3.org/1999/02/22-rdf-syntax-ns#"
   xmlns:svg="http://www.w3.org/2000/svg"
   xmlns="http://www.w3.org/2000/svg"
   xmlns:sodipodi="http://sodipodi.sourceforge.net/DTD/sodipodi-0.dtd"
   xmlns:inkscape="http://www.inkscape.org/namespaces/inkscape"
   width="1220mm"
   height="610mm"
   viewBox="0 0 4322.8346 2161.4173"
   id="svg8254"
   version="1.1"
   inkscape:version="0.92.1 unknown"
   sodipodi:docname="box.svg">
  <defs
     id="defs8256">
    <inkscape:path-effect
       effect="bspline"
       id="path-effect5158"
       is_visible="true"
       weight="33.333333"
       steps="2"
       helper_size="0"
       apply_no_weight="true"
       apply_with_weight="true"
       only_selected="false" />
    <inkscape:path-effect
       effect="bspline"
       id="path-effect5154"
       is_visible="true"
       weight="33.333333"
       steps="2"
       helper_size="0"
       apply_no_weight="true"
       apply_with_weight="true"
       only_selected="false" />
    <inkscape:path-effect
       effect="bspline"
       id="path-effect5150"
       is_visible="true"
       weight="33.333333"
       steps="2"
       helper_size="0"
       apply_no_weight="true"
       apply_with_weight="true"
       only_selected="false" />
    <inkscape:path-effect
       effect="bspline"
       id="path-effect5146"
       is_visible="true"
       weight="33.333333"
       steps="2"
       helper_size="0"
       apply_no_weight="true"
       apply_with_weight="true"
       only_selected="false" />
  </defs>
  <sodipodi:namedview
     id="base"
     pagecolor="#ffffff"
     bordercolor="#666666"
     borderopacity="1.0"
     inkscape:pageopacity="0.0"
     inkscape:pageshadow="2"
     inkscape:zoom="0.44309903"
     inkscape:cx="1210.1628"
     inkscape:cy="1684.5542"
     inkscape:document-units="px"
     inkscape:current-layer="layer1"
     showgrid="false"
     inkscape:window-width="1600"
     inkscape:window-height="847"
     inkscape:window-x="0"
     inkscape:window-y="0"
     inkscape:window-maximized="1"
     inkscape:snap-others="false"
     inkscape:object-nodes="false"
     inkscape:snap-nodes="false" />
  <metadata
     id="metadata8259">
    <rdf:RDF>
      <cc:Work
         rdf:about="">
        <dc:format>image/svg+xml</dc:format>
        <dc:type
           rdf:resource="http://purl.org/dc/dcmitype/StillImage" />
        <dc:title />
      </cc:Work>
    </rdf:RDF>
  </metadata>
  <g
     inkscape:label="Layer 1"
     inkscape:groupmode="layer"
     id="layer1"
     transform="translate(0,1109.0551)">
    <path
       style="fill:#d3d3d3;stroke:#000000;stroke-width:1.77165365"
       d="m 78.56891,-553.48916 h 28.34645 v 14.17323 h 28.34647 v -14.17323 h 28.34646 v 14.17323 h 28.34646 v -14.17323 h 28.34645 v 14.17323 h 28.34646 v -14.17323 h 28.34646 v 14.17323 h 28.34645 v -14.17323 h 28.34646 v 14.17323 h 28.34646 v -14.17323 h 28.34646 v 14.17323 h 28.34645 v -14.17323 h 28.34646 v 14.17323 h 28.34647 v -14.17323 h 28.34645 v 14.17323 h 28.34646 v -14.17323 h 28.34646 v -42.51969 h 14.17323 v -29.76377 H 560.4587 v -29.7638 h 14.17323 v -29.7638 H 560.4587 v -29.7638 h 14.17323 v -29.7637 H 560.4587 v -29.7638 h 14.17323 v -29.7638 H 560.4587 v -29.7638 h 14.17323 v -29.7638 H 560.4587 v -29.7637 h 14.17323 v -29.7638 H 560.4587 v -29.7638 h 14.17323 v -29.7638 H 560.4587 v -29.76378 h 14.17323 v -29.7638 H 560.4587 v -42.5196 h -28.34646 v -14.1733 h -28.34646 v 14.1733 h -28.34645 v -14.1733 h -28.34647 v 14.1733 H 418.7264 v -14.1733 h -28.34645 v 14.1733 h -28.34646 v -14.1733 h -28.34646 v 14.1733 h -28.34646 v -14.1733 h -28.34645 v 14.1733 h -28.34646 v -14.1733 H 220.3012 v 14.1733 h -28.34645 v -14.1733 h -28.34646 v 14.1733 h -28.34646 v -14.1733 h -28.34647 v 14.1733 H 78.56891 v -14.1733 H 50.22245 v 14.1733 H 21.87592 v 42.5196 H 7.70277 v 29.7638 h 14.17315 v 29.76378 H 7.70277 v 29.7638 h 14.17315 v 29.7638 H 7.70277 v 29.7638 h 14.17315 v 29.7637 H 7.70277 v 29.7638 h 14.17315 l 7e-5,29.7638 H 7.70277 v 29.7638 h 14.17322 v 29.7638 H 7.70277 v 29.7637 h 14.17322 v 29.7638 H 7.70277 v 29.7638 h 14.17322 v 29.7638 H 7.70277 v 29.76377 h 14.17322 v 42.51969 h 28.34646 v 14.17323 h 28.34646 z"
       id="path5110" />
    <path
       style="fill:#d3d3d3;stroke:#000000;stroke-width:1.77165365"
       d="m 1198.3248,41.821917 h 29.7638 v 14.17322 h 29.7638 v -14.17322 h 29.7637 v 14.17322 h 29.7639 v -14.17322 h 29.7637 v 14.17322 h 29.7638 v -14.17322 h 29.7638 v 14.17322 h 29.7638 v -14.17322 h 29.7637 v 14.17322 h 29.7639 v -14.17322 h 29.7637 v 14.17322 h 29.7638 v -14.17322 h 29.7638 v 14.17322 h 29.7638 v -14.17322 h 29.7637 v 14.17322 h 42.5198 v -42.51975 h 14.1732 v -30.01388 h -14.1732 v -30.01397 h 14.1732 v -30.01397 h -14.1732 v -30.013497 h 14.1732 v -30.01397 h -14.1732 v -30.01395 h 14.1732 v -30.01393 h -14.1732 v -30.01394 h 14.1732 v -30.01394 h -14.1732 v -30.01393 h 14.1732 v -30.01217 h -14.1732 v -30.01536 h 14.1732 v -30.01536 h -14.1732 v -30.01181 h 14.1732 v -30.01535 h -14.1732 v -30.01181 h 14.1732 v -30.01536 h -14.1732 v -42.51969 h -42.5198 v 14.17323 h -29.7637 v -14.17323 h -29.7638 v 14.17323 h -29.7638 v -14.17323 h -29.7638 v 14.17323 h -29.7637 v -14.17323 h -29.7639 v 14.17323 h -29.7637 v -14.17323 h -29.7638 v 14.17323 h -29.7638 v -14.17323 h -29.7638 v 14.17323 H 1317.38 v -14.17323 h -29.7639 v 14.17323 h -29.7637 v -14.17323 h -29.7638 v 14.17323 h -29.7638 v -14.17323 h -42.5197 v 42.51969 h -14.1732 v 30.01536 h 14.1732 v 30.01181 h -14.1732 v 30.01535 h 14.1732 v 30.01181 h -14.1732 v 30.01536 h 14.1732 v 30.01536 h -14.1732 v 30.01217 h 14.1732 v 30.01393 h -14.1732 v 30.01394 h 14.1732 v 30.01394 h -14.1732 v 30.01393 h 14.1732 v 30.01358 h -14.1732 v 30.01397 h 14.1732 v 30.013867 h -14.1732 v 30.01397 h 14.1732 v 30.01397 h -14.1732 v 30.01388 h 14.1732 v 42.51975 h 42.5197 z"
       id="path5108" />
    <path
       style="fill:#d3d3d3;stroke:#000000;stroke-width:1.77165365"
       d="m 1758.2028,41.821917 h 29.7637 v 14.17322 h 29.7639 v -14.17322 h 29.7637 v 14.17322 h 29.7638 v -14.17322 h 29.7638 v 14.17322 h 29.7638 v -14.17322 h 29.7637 v 14.17322 h 29.764 v -14.17322 h 29.7637 v 14.17322 h 29.7638 v -14.17322 h 29.7638 v 14.17322 h 29.7638 v -14.17322 h 29.7637 v 14.17322 h 29.7638 v -14.17322 h 29.7638 v 14.17322 h 42.5197 v -42.51975 h 14.1732 v -30.01388 h -14.1732 v -30.01397 h 14.1732 v -30.01397 h -14.1732 v -30.013497 h 14.1732 v -30.01397 h -14.1732 v -30.01395 h 14.1732 v -30.01393 h -14.1732 v -30.01394 h 14.1732 v -30.01394 h -14.1732 v -30.01393 h 14.1732 v -30.01217 h -14.1732 v -30.01536 h 14.1732 v -30.01536 h -14.1732 v -30.01181 h 14.1732 v -30.01535 h -14.1732 v -30.01181 h 14.1732 v -30.01536 h -14.1732 v -42.51969 h -42.5197 v 14.17323 h -29.7638 v -14.17323 h -29.7638 v 14.17323 h -29.7637 v -14.17323 h -29.7638 v 14.17323 h -29.7638 v -14.17323 h -29.7638 v 14.17323 h -29.7637 v -14.17323 h -29.764 v 14.17323 h -29.7637 v -14.17323 h -29.7638 v 14.17323 h -29.7638 v -14.17323 h -29.7638 v 14.17323 h -29.7637 v -14.17323 h -29.7639 v 14.17323 h -29.7637 v -14.17323 h -42.5197 v 42.51969 h -14.1732 v 30.01536 h 14.1732 v 30.01181 h -14.1732 v 30.01535 h 14.1732 v 30.01181 h -14.1732 v 30.01536 h 14.1732 v 30.01536 h -14.1732 v 30.01217 h 14.1732 v 30.01393 h -14.1732 v 30.01394 h 14.1732 v 30.01394 h -14.1732 v 30.01393 h 14.1732 v 30.01358 h -14.1732 v 30.01397 h 14.1732 v 30.013867 h -14.1732 v 30.01397 h 14.1732 v 30.01397 h -14.1732 v 30.01388 h 14.1732 v 42.51975 h 42.5197 z"
       id="path5106" />
    <path
       style="fill:#d3d3d3;stroke:#000000;stroke-width:1.77165365"
       d="m 50.22245,41.821917 h 28.34646 v 14.17322 h 28.34645 v -14.17322 h 28.34647 v 14.17322 h 28.34646 v -14.17322 h 28.34646 v 14.17322 h 28.34645 v -14.17322 h 28.34646 v 14.17322 h 28.34646 v -14.17322 h 28.34645 v 14.17322 h 28.34646 v -14.17322 h 28.34646 v 14.17322 h 28.34646 v -14.17322 h 28.34645 v 14.17322 h 28.34646 v -14.17322 h 28.34647 v 14.17322 h 28.34645 v -14.17322 h 28.34646 v 14.17322 h 42.51969 V 13.475387 H 560.4587 v -30.01388 h 14.17323 v -30.01397 H 560.4587 v -30.01397 h 14.17323 V -106.57993 H 560.4587 v -30.01397 h 14.17323 v -30.01395 H 560.4587 v -30.01393 h 14.17323 v -30.01394 H 560.4587 v -30.01394 h 14.17323 v -30.01393 H 560.4587 v -30.01217 h 14.17323 v -30.01536 H 560.4587 v -30.01536 h 14.17323 v -30.01181 H 560.4587 v -30.01535 h 14.17323 v -30.01181 H 560.4587 v -30.01536 h 14.17323 v -42.51969 h -42.51969 v 14.17323 h -28.34646 v -14.17323 h -28.34645 v 14.17323 H 447.07286 V -539.2805 H 418.7264 v 14.17323 h -28.34645 v -14.17323 h -28.34646 v 14.17323 h -28.34646 v -14.17323 h -28.34646 v 14.17323 h -28.34645 v -14.17323 h -28.34646 v 14.17323 H 220.3012 v -14.17323 h -28.34645 v 14.17323 h -28.34646 v -14.17323 h -28.34646 v 14.17323 H 106.91536 V -539.2805 H 78.56891 v 14.17323 H 50.22245 V -539.2805 H 7.70277 v 42.51969 h 14.17315 v 30.01536 H 7.70277 v 30.01181 h 14.17315 v 30.01535 H 7.70277 v 30.01181 h 14.17315 v 30.01536 H 7.70277 v 30.01536 h 14.17315 v 30.01217 H 7.70277 v 30.01393 h 14.17315 l 7e-5,30.01394 H 7.70277 v 30.01394 h 14.17322 v 30.01393 H 7.70277 v 30.01358 h 14.17322 v 30.01397 H 7.70277 v 30.013867 h 14.17322 v 30.01397 H 7.70277 v 30.01397 h 14.17322 v 30.01388 H 7.70277 v 42.51975 h 42.51968 z"
       id="path5104" />
    <path
       style="fill:#d3d3d3;stroke:#000000;stroke-width:1.77165365"
       d="m 617.18704,41.821917 h 28.34647 v 14.17322 h 28.34645 v -14.17322 h 28.34646 v 14.17322 h 28.34646 v -14.17322 h 28.34645 v 14.17322 h 28.34646 v -14.17322 h 28.34646 v 14.17322 h 28.34646 v -14.17322 h 28.34645 v 14.17322 h 28.34646 v -14.17322 h 28.34646 v 14.17322 h 28.34648 V 41.821917 H 985.691 v 14.17322 h 28.3464 v -14.17322 h 28.3464 v 14.17322 h 28.3466 v -14.17322 h 28.3464 v 14.17322 h 42.5197 v -42.51975 h -14.1733 v -30.01388 h 14.1733 v -30.01397 h -14.1733 v -30.01397 h 14.1733 v -30.013497 h -14.1733 v -30.01397 h 14.1733 v -30.01395 h -14.1733 v -30.01393 h 14.1733 v -30.01394 h -14.1733 v -30.01394 h 14.1733 v -30.01393 h -14.1733 v -30.01217 h 14.1733 v -30.01536 h -14.1733 v -30.01536 h 14.1733 v -30.01181 h -14.1733 v -30.01535 h 14.1733 v -30.01181 h -14.1733 v -30.01536 h 14.1733 v -42.51969 h -42.5197 v 14.17323 h -28.3464 v -14.17323 h -28.3466 v 14.17323 h -28.3464 V -539.2805 H 985.691 v 14.17323 h -28.34644 v -14.17323 h -28.34648 v 14.17323 h -28.34646 v -14.17323 h -28.34646 v 14.17323 h -28.34645 v -14.17323 h -28.34646 v 14.17323 h -28.34646 v -14.17323 h -28.34646 v 14.17323 h -28.34645 v -14.17323 h -28.34646 v 14.17323 h -28.34646 v -14.17323 h -28.34645 v 14.17323 h -28.34647 v -14.17323 h -42.51969 v 42.51969 h 14.17323 v 30.01536 h -14.17323 v 30.01181 h 14.17323 v 30.01535 h -14.17323 v 30.01181 h 14.17323 v 30.01536 h -14.17323 v 30.01536 h 14.17323 v 30.01217 h -14.17323 v 30.01393 h 14.17323 v 30.01394 h -14.17323 v 30.01394 h 14.17323 v 30.01393 h -14.17323 v 30.01358 h 14.17323 v 30.01397 h -14.17323 v 30.013867 h 14.17323 v 30.01397 h -14.17323 v 30.01397 h 14.17323 v 30.01388 h -14.17323 v 42.51975 h 42.51969 z"
       id="path4534" />
    <text
       xml:space="preserve"
       style="font-style:normal;font-weight:normal;font-size:154.21380615px;line-height:125%;font-family:sans-serif;letter-spacing:0px;word-spacing:0px;fill:#000000;fill-opacity:1;stroke:none;stroke-width:10.28092194px;stroke-linecap:butt;stroke-linejoin:miter;stroke-opacity:1"
       x="134.89977"
       y="-717.73212"
       id="text5116"
       transform="scale(0.92592669,1.0799991)"><tspan
         sodipodi:role="line"
         id="tspan5114"
         x="134.89977"
         y="-717.73212"
         style="stroke-width:10.28092194px">Front</tspan></text>
    <g
       id="g5186"
       transform="translate(-1896.2043,-184.12072)">
      <path
         inkscape:connector-curvature="0"
         id="path5112"
         d="m 2552.0671,-380.01965 h 28.3464 v 14.17323 h 28.3464 v -14.17323 h 28.3465 v 14.17323 h 28.3464 v -14.17323 h 28.3465 v 14.17323 h 28.3464 v -14.17323 h 28.3465 v 14.17323 h 28.3464 v -14.17323 h 28.3465 v 14.17323 h 28.3465 v -14.17323 h 28.3464 v 14.17323 h 28.3465 v -14.17323 h 28.3464 v 14.17323 h 28.3464 v -14.17323 h 28.3466 v 14.17323 h 28.3464 v -14.17323 h 28.3464 v -42.51969 h 14.1733 v -29.76377 h -14.1733 v -29.7638 h 14.1733 v -29.7638 h -14.1733 v -29.7638 h 14.1733 v -29.7637 h -14.1733 v -29.7638 h 14.1733 v -29.7638 h -14.1733 v -29.7638 h 14.1733 v -29.7638 h -14.1733 v -29.7637 h 14.1733 v -29.7638 h -14.1733 v -29.7638 h 14.1733 v -29.7638 h -14.1733 v -29.76378 h 14.1733 v -29.7638 h -14.1733 v -42.5196 h -28.3464 v -14.1733 h -28.3464 v 14.1733 h -28.3466 v -14.1733 h -28.3464 v 14.1733 h -28.3464 v -14.1733 h -28.3465 v 14.1733 h -28.3464 v -14.1733 h -28.3465 v 14.1733 h -28.3465 v -14.1733 h -28.3464 v 14.1733 h -28.3465 v -14.1733 h -28.3464 v 14.1733 h -28.3465 v -14.1733 h -28.3464 v 14.1733 h -28.3465 v -14.1733 h -28.3464 v 14.1733 h -28.3464 v -14.1733 h -28.3465 v 14.1733 h -28.3464 v 42.5196 h -14.1733 v 29.7638 h 14.1733 v 29.76378 h -14.1733 v 29.7638 h 14.1733 v 29.7638 h -14.1733 v 29.7638 h 14.1733 v 29.7637 h -14.1733 v 29.7638 h 14.1733 v 29.7638 h -14.1733 v 29.7638 h 14.1733 v 29.7638 h -14.1733 v 29.7637 h 14.1733 v 29.7638 h -14.1733 v 29.7638 h 14.1733 v 29.7638 h -14.1733 v 29.76377 h 14.1733 v 42.51969 h 28.3464 v 14.17323 h 28.3465 z"
         style="fill:#d3d3d3;stroke:#000000;stroke-width:1.77165365" />
      <g
         transform="translate(1112.5485,214.37007)"
         id="g5175">
        <rect
           style="fill:none;fill-opacity:1;stroke:#000000;stroke-width:0.45054764;stroke-miterlimit:4;stroke-dasharray:none;stroke-dashoffset:0;stroke-opacity:1"
           id="rect5138"
           width="79.273865"
           height="98.762054"
           x="1414.0548"
           y="-818.27863"
           ry="7.6998186" />
        <circle
           style="fill:none;fill-opacity:1;stroke:#000000;stroke-width:0.93750006;stroke-miterlimit:4;stroke-dasharray:none;stroke-dashoffset:0;stroke-opacity:1"
           id="path5140"
           cx="1453.6918"
           cy="-840.95654"
           r="16.668915" />
        <circle
           r="16.668915"
           cy="-697.45258"
           cx="1453.6918"
           id="circle5142"
           style="fill:none;fill-opacity:1;stroke:#000000;stroke-width:0.93750006;stroke-miterlimit:4;stroke-dasharray:none;stroke-dashoffset:0;stroke-opacity:1" />
        <path
           style="fill:none;fill-rule:evenodd;stroke:#000000;stroke-width:0.93750006px;stroke-linecap:butt;stroke-linejoin:miter;stroke-opacity:1"
           d="m 1415.2859,-815.03003 c 8.5688,-12.17619 17.1368,-24.35128 25.7041,-36.52531"
           id="path5144"
           inkscape:connector-curvature="0"
           inkscape:original-d="m 1415.2859,-815.03003 c 8.569,-12.17605 17.137,-24.35115 25.7041,-36.52531"
           sodipodi:nodetypes="cc"
           inkscape:path-effect="#path-effect5146" />
        <path
           style="fill:none;fill-rule:evenodd;stroke:#000000;stroke-width:0.93750006px;stroke-linecap:butt;stroke-linejoin:miter;stroke-opacity:1"
           d="m 1491.5535,-815.39404 c -8.1046,-11.72252 -16.209,-23.44478 -24.3133,-35.16693"
           id="path5148"
           inkscape:connector-curvature="0"
           inkscape:original-d="m 1491.5535,-815.39404 c -8.1035,-11.72327 -16.2079,-23.44553 -24.3133,-35.16693"
           sodipodi:nodetypes="cc"
           inkscape:path-effect="#path-effect5150" />
        <path
           style="fill:none;fill-rule:evenodd;stroke:#000000;stroke-width:0.93750006px;stroke-linecap:butt;stroke-linejoin:miter;stroke-opacity:1"
           d="m 1416.4105,-721.67623 c 7.5908,10.74503 15.1817,21.4902 22.7728,32.23559"
           id="path5152"
           inkscape:connector-curvature="0"
           inkscape:original-d="m 1416.4105,-721.67623 c 7.5919,10.74427 15.1828,21.48945 22.7728,32.23559"
           sodipodi:nodetypes="cc"
           inkscape:path-effect="#path-effect5154" />
        <path
           style="fill:none;fill-rule:evenodd;stroke:#000000;stroke-width:0.93750006px;stroke-linecap:butt;stroke-linejoin:miter;stroke-opacity:1"
           d="m 1490.8771,-721.79313 c -7.8718,11.32908 -15.7444,22.65931 -23.6177,33.99055"
           id="path5156"
           inkscape:connector-curvature="0"
           inkscape:original-d="m 1490.8771,-721.79313 c -7.8716,11.32922 -15.7442,22.65945 -23.6177,33.99055"
           sodipodi:nodetypes="cc"
           inkscape:path-effect="#path-effect5158" />
      </g>
    </g>
    <text
       transform="scale(0.92592669,1.0799991)"
       id="text5120"
       y="-717.73212"
       x="693.79901"
       style="font-style:normal;font-weight:normal;font-size:154.21380615px;line-height:125%;font-family:sans-serif;letter-spacing:0px;word-spacing:0px;fill:#000000;fill-opacity:1;stroke:none;stroke-width:10.28092194px;stroke-linecap:butt;stroke-linejoin:miter;stroke-opacity:1"
       xml:space="preserve"><tspan
         style="stroke-width:10.28092194px"
         y="-717.73212"
         x="693.79901"
         id="tspan5118"
         sodipodi:role="line">Back</tspan></text>
    <text
       xml:space="preserve"
       style="font-style:normal;font-weight:normal;font-size:154.21380615px;line-height:125%;font-family:sans-serif;letter-spacing:0px;word-spacing:0px;fill:#000000;fill-opacity:1;stroke:none;stroke-width:10.28092194px;stroke-linecap:butt;stroke-linejoin:miter;stroke-opacity:1"
       x="1341.799"
       y="-188.21811"
       id="text5124"
       transform="scale(0.92592669,1.0799991)"><tspan
         sodipodi:role="line"
         id="tspan5122"
         x="1341.799"
         y="-188.21811"
         style="stroke-width:10.28092194px">Left</tspan></text>
    <text
       transform="scale(0.92592669,1.0799991)"
       id="text5128"
       y="-188.21811"
       x="2018.1486"
       style="font-style:normal;font-weight:normal;font-size:154.21380615px;line-height:125%;font-family:sans-serif;letter-spacing:0px;word-spacing:0px;fill:#000000;fill-opacity:1;stroke:none;stroke-width:10.28092194px;stroke-linecap:butt;stroke-linejoin:miter;stroke-opacity:1"
       xml:space="preserve"><tspan
         style="stroke-width:10.28092194px"
         y="-188.21811"
         x="2018.1486"
         id="tspan5126"
         sodipodi:role="line">Right</tspan></text>
    <text
       transform="scale(0.92592669,1.0799991)"
       id="text5132"
       y="-188.21811"
       x="185.52438"
       style="font-style:normal;font-weight:normal;font-size:154.21380615px;line-height:125%;font-family:sans-serif;letter-spacing:0px;word-spacing:0px;fill:#000000;fill-opacity:1;stroke:none;stroke-width:10.28092194px;stroke-linecap:butt;stroke-linejoin:miter;stroke-opacity:1"
       xml:space="preserve"><tspan
         style="stroke-width:10.28092194px"
         y="-188.21811"
         x="185.52438"
         id="tspan5130"
         sodipodi:role="line">Top</tspan></text>
    <text
       xml:space="preserve"
       style="font-style:normal;font-weight:normal;font-size:154.21380615px;line-height:125%;font-family:sans-serif;letter-spacing:0px;word-spacing:0px;fill:#000000;fill-opacity:1;stroke:none;stroke-width:10.28092194px;stroke-linecap:butt;stroke-linejoin:miter;stroke-opacity:1"
       x="651.27393"
       y="-188.21811"
       id="text5136"
       transform="scale(0.92592669,1.0799991)"><tspan
         sodipodi:role="line"
         id="tspan5134"
         x="651.27393"
         y="-188.21811"
         style="stroke-width:10.28092194px">Bottom</tspan></text>
  </g>
</svg>
