<?xml version="1.0" encoding="UTF-8" standalone="no"?>
<!-- Created with Inkscape (http://www.inkscape.org/) -->

<svg
   xmlns:dc="http://purl.org/dc/elements/1.1/"
   xmlns:cc="http://creativecommons.org/ns#"
   xmlns:rdf="http://www.w3.org/1999/02/22-rdf-syntax-ns#"
   xmlns:svg="http://www.w3.org/2000/svg"
   xmlns="http://www.w3.org/2000/svg"
   xmlns:sodipodi="http://sodipodi.sourceforge.net/DTD/sodipodi-0.dtd"
   xmlns:inkscape="http://www.inkscape.org/namespaces/inkscape"
   width="1220mm"
   height="610mm"
   viewBox="0 0 4322.8346 2161.4173"
   id="svg8254"
   version="1.1"
   inkscape:version="0.92.1 unknown"
   sodipodi:docname="box1a.svg">
  <defs
     id="defs8256">
    <inkscape:path-effect
       effect="bspline"
       id="path-effect5158"
       is_visible="true"
       weight="33.333333"
       steps="2"
       helper_size="0"
       apply_no_weight="true"
       apply_with_weight="true"
       only_selected="false" />
    <inkscape:path-effect
       effect="bspline"
       id="path-effect5154"
       is_visible="true"
       weight="33.333333"
       steps="2"
       helper_size="0"
       apply_no_weight="true"
       apply_with_weight="true"
       only_selected="false" />
    <inkscape:path-effect
       effect="bspline"
       id="path-effect5150"
       is_visible="true"
       weight="33.333333"
       steps="2"
       helper_size="0"
       apply_no_weight="true"
       apply_with_weight="true"
       only_selected="false" />
    <inkscape:path-effect
       effect="bspline"
       id="path-effect5146"
       is_visible="true"
       weight="33.333333"
       steps="2"
       helper_size="0"
       apply_no_weight="true"
       apply_with_weight="true"
       only_selected="false" />
  </defs>
  <sodipodi:namedview
     id="base"
     pagecolor="#ffffff"
     bordercolor="#666666"
     borderopacity="1.0"
     inkscape:pageopacity="0.0"
     inkscape:pageshadow="2"
     inkscape:zoom="1.0740312"
     inkscape:cx="237.21524"
     inkscape:cy="1963.9857"
     inkscape:document-units="px"
     inkscape:current-layer="layer1"
     showgrid="false"
     inkscape:window-width="1600"
     inkscape:window-height="847"
     inkscape:window-x="0"
     inkscape:window-y="0"
     inkscape:window-maximized="1"
     inkscape:snap-others="false"
     inkscape:object-nodes="false"
     inkscape:snap-nodes="false" />
  <metadata
     id="metadata8259">
    <rdf:RDF>
      <cc:Work
         rdf:about="">
        <dc:format>image/svg+xml</dc:format>
        <dc:type
           rdf:resource="http://purl.org/dc/dcmitype/StillImage" />
        <dc:title />
      </cc:Work>
    </rdf:RDF>
  </metadata>
  <g
     inkscape:label="Layer 1"
     inkscape:groupmode="layer"
     id="layer1"
     transform="translate(0,1109.0551)">
    <rect
       style="fill:none;fill-opacity:1;stroke:#000000;stroke-width:1.05856478;stroke-miterlimit:4;stroke-dasharray:none;stroke-dashoffset:0;stroke-opacity:1"
       id="rect4512"
       width="293.03592"
       height="282.40601"
       x="252.1041"
       y="-835.69116" />
    <path
       style="fill:none;stroke:#000000;stroke-width:1.77165365"
       d="m 107.1851,-521.75193 h 28.3464 v 14.17323 h 28.3464 v -14.17323 h 28.3465 v 14.17323 h 28.3464 v -14.17323 h 28.3465 v 14.17323 h 28.3464 v -14.17323 h 28.3465 v 14.17323 h 28.3464 v -14.17323 h 28.3465 v 14.17323 h 28.3465 v -14.17323 h 28.3464 v 14.17323 h 28.3465 v -14.17323 h 28.3464 v 14.17323 h 28.3464 v -14.17323 h 28.3466 v 14.17323 h 28.3464 v -14.17323 h 28.3464 v -42.51969 h 14.1733 v -29.76377 h -14.1733 v -29.7638 h 14.1733 v -29.7638 h -14.1733 v -29.7638 h 14.1733 v -29.7637 h -14.1733 v -29.7638 h 14.1733 v -29.7638 h -14.1733 v -29.7638 h 14.1733 v -29.7638 h -14.1733 v -29.7637 h 14.1733 v -29.7638 h -14.1733 v -29.7638 h 14.1733 v -29.7638 h -14.1733 v -29.76379 h 14.1733 v -29.76382 h -14.1733 v -42.5196 h -28.3464 v -14.1733 h -28.3464 v 14.1733 h -28.3466 v -14.1733 h -28.3464 v 14.1733 h -28.3464 v -14.1733 H 418.996 v 14.1733 h -28.3464 v -14.1733 h -28.3465 v 14.1733 h -28.3465 v -14.1733 h -28.3464 v 14.1733 h -28.3465 v -14.1733 h -28.3464 v 14.1733 h -28.3465 v -14.1733 h -28.3464 v 14.1733 h -28.3465 v -14.1733 h -28.3464 v 14.1733 h -28.3464 v -14.1733 H 78.838599 v 14.1733 h -28.3464 v 42.5196 h -14.1733 v 29.76382 h 14.1733 v 29.76379 h -14.1733 v 29.7638 h 14.1733 v 29.7638 h -14.1733 v 29.7638 h 14.1733 v 29.7637 h -14.1733 v 29.7638 h 14.1733 v 29.7638 h -14.1733 v 29.7638 h 14.1733 v 29.7638 h -14.1733 v 29.7637 h 14.1733 v 29.7638 h -14.1733 v 29.7638 h 14.1733 v 29.7638 h -14.1733 v 29.76377 h 14.1733 v 42.51969 h 28.3464 v 14.17323 H 107.1851 Z"
       id="path5112"
       inkscape:connector-curvature="0" />
    <rect
       style="fill:none;fill-opacity:1;stroke:#000000;stroke-width:0.45308664;stroke-miterlimit:4;stroke-dasharray:none;stroke-dashoffset:0;stroke-opacity:1"
       id="rect5138"
       width="80.171913"
       height="98.759514"
       x="83.277451"
       y="-745.63959"
       ry="7.6996207" />
    <circle
       style="fill:none;fill-opacity:1;stroke:#000000;stroke-width:0.93750006;stroke-miterlimit:4;stroke-dasharray:none;stroke-dashoffset:0;stroke-opacity:1"
       id="path5140"
       cx="123.38189"
       cy="-768.71832"
       r="16.668915" />
    <circle
       r="16.668915"
       cy="-624.24957"
       cx="123.38189"
       id="circle5142"
       style="fill:none;fill-opacity:1;stroke:#000000;stroke-width:0.93750006;stroke-miterlimit:4;stroke-dasharray:none;stroke-dashoffset:0;stroke-opacity:1" />
    <path
       style="fill:none;fill-rule:evenodd;stroke:#000000;stroke-width:0.93750006px;stroke-linecap:butt;stroke-linejoin:miter;stroke-opacity:1"
       d="m 84.524013,-741.82723 c 5.486867,-9.99106 10.97369,-19.98204 15.620147,-26.59882 4.64646,-6.61678 8.45014,-9.85735 12.25447,-13.09846"
       id="path5144"
       inkscape:connector-curvature="0"
       inkscape:original-d="m 84.524013,-741.82723 c 5.487193,-9.99088 10.974015,-19.98186 16.460487,-29.97297 3.80605,-3.24271 7.60973,-6.48328 11.41413,-9.72431"
       sodipodi:nodetypes="ccc"
       inkscape:path-effect="#path-effect5146" />
    <path
       style="fill:none;fill-rule:evenodd;stroke:#000000;stroke-width:0.93750006px;stroke-linecap:butt;stroke-linejoin:miter;stroke-opacity:1"
       d="m 161.92164,-742.75625 c -5.20796,-9.32979 -10.41584,-18.65943 -15.01748,-25.05115 -4.60165,-6.39173 -8.59687,-9.84541 -12.59248,-13.29943"
       id="path5148"
       inkscape:connector-curvature="0"
       inkscape:original-d="m 161.92164,-742.75625 c -5.20685,-9.33041 -10.41472,-18.66005 -15.62368,-27.989 -3.99458,-3.45488 -7.98981,-6.90856 -11.98628,-10.36158"
       sodipodi:nodetypes="ccc"
       inkscape:path-effect="#path-effect5150" />
    <path
       style="fill:none;fill-rule:evenodd;stroke:#000000;stroke-width:0.93750006px;stroke-linecap:butt;stroke-linejoin:miter;stroke-opacity:1"
       d="m 85.252703,-649.25042 c 4.321265,8.27388 8.642372,16.54747 12.739301,22.42395 4.096926,5.87649 7.969026,9.35477 11.840986,12.83294"
       id="path5152"
       inkscape:connector-curvature="0"
       inkscape:original-d="m 85.252703,-649.25042 c 4.322385,8.2733 8.643496,16.54688 12.963986,24.82202 3.873131,3.47743 7.745221,6.95572 11.616301,10.43487"
       sodipodi:nodetypes="ccc"
       inkscape:path-effect="#path-effect5154" />
    <path
       style="fill:none;fill-rule:evenodd;stroke:#000000;stroke-width:0.95305759px;stroke-linecap:butt;stroke-linejoin:miter;stroke-opacity:1"
       d="m 161.59876,-649.94102 c -5.30982,9.79014 -10.61814,19.57749 -15.08613,25.86131 -4.46799,6.28381 -8.09191,9.05712 -11.71589,11.83047"
       id="path5156"
       inkscape:connector-curvature="0"
       inkscape:original-d="m 161.59876,-649.94102 c -5.30949,9.79032 -10.61781,19.57767 -15.93026,29.37187 -3.62396,2.77312 -7.24788,5.54642 -10.87176,8.31991"
       sodipodi:nodetypes="ccc"
       inkscape:path-effect="#path-effect5158" />
    <text
       transform="scale(0.92592669,1.0799991)"
       id="text5120"
       y="-839.73047"
       x="153.8784"
       style="font-style:normal;font-weight:normal;font-size:154.21380615px;line-height:125%;font-family:sans-serif;letter-spacing:0px;word-spacing:0px;fill:#000000;fill-opacity:1;stroke:none;stroke-width:10.28092194px;stroke-linecap:butt;stroke-linejoin:miter;stroke-opacity:1"
       xml:space="preserve"><tspan
         style="stroke-width:10.28092194px"
         y="-839.73047"
         x="153.8784"
         id="tspan5118"
         sodipodi:role="line">Back</tspan></text>
  </g>
</svg>
