<?xml version="1.0" encoding="UTF-8" standalone="no"?>
<!-- Created with Inkscape (http://www.inkscape.org/) -->

<svg
   xmlns:dc="http://purl.org/dc/elements/1.1/"
   xmlns:cc="http://creativecommons.org/ns#"
   xmlns:rdf="http://www.w3.org/1999/02/22-rdf-syntax-ns#"
   xmlns:svg="http://www.w3.org/2000/svg"
   xmlns="http://www.w3.org/2000/svg"
   xmlns:sodipodi="http://sodipodi.sourceforge.net/DTD/sodipodi-0.dtd"
   xmlns:inkscape="http://www.inkscape.org/namespaces/inkscape"
   width="1220mm"
   height="610mm"
   viewBox="0 0 4322.8346 2161.4173"
   id="svg8254"
   version="1.1"
   inkscape:version="0.92.1 unknown"
   sodipodi:docname="box1b.svg">
  <defs
     id="defs8256">
    <inkscape:path-effect
       effect="bspline"
       id="path-effect5158"
       is_visible="true"
       weight="33.333333"
       steps="2"
       helper_size="0"
       apply_no_weight="true"
       apply_with_weight="true"
       only_selected="false" />
    <inkscape:path-effect
       effect="bspline"
       id="path-effect5154"
       is_visible="true"
       weight="33.333333"
       steps="2"
       helper_size="0"
       apply_no_weight="true"
       apply_with_weight="true"
       only_selected="false" />
    <inkscape:path-effect
       effect="bspline"
       id="path-effect5150"
       is_visible="true"
       weight="33.333333"
       steps="2"
       helper_size="0"
       apply_no_weight="true"
       apply_with_weight="true"
       only_selected="false" />
    <inkscape:path-effect
       effect="bspline"
       id="path-effect5146"
       is_visible="true"
       weight="33.333333"
       steps="2"
       helper_size="0"
       apply_no_weight="true"
       apply_with_weight="true"
       only_selected="false" />
  </defs>
  <sodipodi:namedview
     id="base"
     pagecolor="#ffffff"
     bordercolor="#666666"
     borderopacity="1.0"
     inkscape:pageopacity="0.0"
     inkscape:pageshadow="2"
     inkscape:zoom="1.0950578"
     inkscape:cx="323.52193"
     inkscape:cy="1984.0934"
     inkscape:document-units="px"
     inkscape:current-layer="layer1"
     showgrid="false"
     inkscape:window-width="1600"
     inkscape:window-height="847"
     inkscape:window-x="0"
     inkscape:window-y="0"
     inkscape:window-maximized="1"
     inkscape:snap-others="false"
     inkscape:object-nodes="false"
     inkscape:snap-nodes="false" />
  <metadata
     id="metadata8259">
    <rdf:RDF>
      <cc:Work
         rdf:about="">
        <dc:format>image/svg+xml</dc:format>
        <dc:type
           rdf:resource="http://purl.org/dc/dcmitype/StillImage" />
        <dc:title />
      </cc:Work>
    </rdf:RDF>
  </metadata>
  <g
     inkscape:label="Layer 1"
     inkscape:groupmode="layer"
     id="layer1"
     transform="translate(0,1109.0551)">
    <path
       inkscape:connector-curvature="0"
       style="fill:none;stroke:#000000;stroke-width:1.77165365"
       d="m 107.18504,-521.75193 h 28.34645 v 14.17323 h 28.34647 v -14.17323 h 28.34646 v 14.17323 h 28.34646 v -14.17323 h 28.34645 v 14.17323 h 28.34646 v -14.17323 h 28.34646 v 14.17323 h 28.34645 v -14.17323 h 28.34646 v 14.17323 h 28.34646 v -14.17323 h 28.34646 v 14.17323 h 28.34645 v -14.17323 h 28.34646 v 14.17323 h 28.34647 v -14.17323 h 28.34645 v 14.17323 h 28.34646 v -14.17323 h 28.34646 v -42.51969 h 14.17323 v -29.76377 h -14.17323 v -29.7638 h 14.17323 v -29.7638 h -14.17323 v -29.7638 h 14.17323 v -29.7637 h -14.17323 v -29.7638 h 14.17323 v -29.7638 h -14.17323 v -29.7638 h 14.17323 v -29.7638 h -14.17323 v -29.7637 h 14.17323 v -29.7638 h -14.17323 v -29.7638 h 14.17323 v -29.7638 h -14.17323 v -29.76378 h 14.17323 v -29.76383 h -14.17323 v -42.5196 h -28.34646 v -14.1733 h -28.34646 v 14.1733 h -28.34645 v -14.1733 h -28.34647 v 14.1733 h -28.34646 v -14.1733 h -28.34645 v 14.1733 h -28.34646 v -14.1733 h -28.34646 v 14.1733 H 333.9567 v -14.1733 h -28.34645 v 14.1733 h -28.34646 v -14.1733 h -28.34646 v 14.1733 h -28.34645 v -14.1733 h -28.34646 v 14.1733 h -28.34646 v -14.1733 h -28.34647 v 14.1733 h -28.34645 v -14.1733 H 78.838579 v 14.1733 h -28.34653 v 42.5196 h -14.17315 v 29.76383 h 14.17315 v 29.76378 h -14.17315 v 29.7638 h 14.17315 v 29.7638 h -14.17315 v 29.7638 h 14.17315 v 29.7637 h -14.17315 v 29.7638 h 14.17315 l 7e-5,29.7638 h -14.17322 v 29.7638 h 14.17322 v 29.7638 h -14.17322 v 29.7637 h 14.17322 v 29.7638 h -14.17322 v 29.7638 h 14.17322 v 29.7638 h -14.17322 v 29.76377 h 14.17322 v 42.51969 h 28.34646 v 14.17323 h 28.346461 z"
       id="path5110" />
    <text
       xml:space="preserve"
       style="font-style:normal;font-weight:normal;font-size:154.21380615px;line-height:125%;font-family:sans-serif;letter-spacing:0px;word-spacing:0px;fill:#000000;fill-opacity:1;stroke:none;stroke-width:10.28092194px;stroke-linecap:butt;stroke-linejoin:miter;stroke-opacity:1"
       x="130.24754"
       y="-858.21155"
       id="text5116"
       transform="scale(0.92592669,1.0799991)"><tspan
         sodipodi:role="line"
         id="tspan5114"
         x="130.24754"
         y="-858.21155"
         style="stroke-width:10.28092194px">Front</tspan></text>
    <rect
       style="fill:none;fill-opacity:1;stroke:#000000;stroke-width:1.61627162;stroke-miterlimit:4;stroke-dasharray:none;stroke-dashoffset:0;stroke-opacity:1"
       id="rect4493"
       width="281.8483"
       height="281.8483"
       x="114.19397"
       y="-835.41229" />
  </g>
</svg>
