<?xml version="1.0" encoding="UTF-8" standalone="no"?>
<!-- Created with Inkscape (http://www.inkscape.org/) -->

<svg
   xmlns:dc="http://purl.org/dc/elements/1.1/"
   xmlns:cc="http://creativecommons.org/ns#"
   xmlns:rdf="http://www.w3.org/1999/02/22-rdf-syntax-ns#"
   xmlns:svg="http://www.w3.org/2000/svg"
   xmlns="http://www.w3.org/2000/svg"
   xmlns:sodipodi="http://sodipodi.sourceforge.net/DTD/sodipodi-0.dtd"
   xmlns:inkscape="http://www.inkscape.org/namespaces/inkscape"
   width="1220mm"
   height="610mm"
   viewBox="0 0 4322.8346 2161.4173"
   id="svg8254"
   version="1.1"
   inkscape:version="0.92.1 unknown"
   sodipodi:docname="box2b.svg">
  <defs
     id="defs8256">
    <inkscape:path-effect
       effect="bspline"
       id="path-effect5158"
       is_visible="true"
       weight="33.333333"
       steps="2"
       helper_size="0"
       apply_no_weight="true"
       apply_with_weight="true"
       only_selected="false" />
    <inkscape:path-effect
       effect="bspline"
       id="path-effect5154"
       is_visible="true"
       weight="33.333333"
       steps="2"
       helper_size="0"
       apply_no_weight="true"
       apply_with_weight="true"
       only_selected="false" />
    <inkscape:path-effect
       effect="bspline"
       id="path-effect5150"
       is_visible="true"
       weight="33.333333"
       steps="2"
       helper_size="0"
       apply_no_weight="true"
       apply_with_weight="true"
       only_selected="false" />
    <inkscape:path-effect
       effect="bspline"
       id="path-effect5146"
       is_visible="true"
       weight="33.333333"
       steps="2"
       helper_size="0"
       apply_no_weight="true"
       apply_with_weight="true"
       only_selected="false" />
  </defs>
  <sodipodi:namedview
     id="base"
     pagecolor="#ffffff"
     bordercolor="#666666"
     borderopacity="1.0"
     inkscape:pageopacity="0.0"
     inkscape:pageshadow="2"
     inkscape:zoom="0.80404406"
     inkscape:cx="356.73643"
     inkscape:cy="1975.8022"
     inkscape:document-units="px"
     inkscape:current-layer="layer1"
     showgrid="false"
     inkscape:window-width="1600"
     inkscape:window-height="847"
     inkscape:window-x="0"
     inkscape:window-y="0"
     inkscape:window-maximized="1"
     inkscape:snap-others="false"
     inkscape:object-nodes="false"
     inkscape:snap-nodes="false" />
  <metadata
     id="metadata8259">
    <rdf:RDF>
      <cc:Work
         rdf:about="">
        <dc:format>image/svg+xml</dc:format>
        <dc:type
           rdf:resource="http://purl.org/dc/dcmitype/StillImage" />
        <dc:title />
      </cc:Work>
    </rdf:RDF>
  </metadata>
  <g
     inkscape:label="Layer 1"
     inkscape:groupmode="layer"
     id="layer1"
     transform="translate(0,1109.0551)">
    <path
       style="fill:#d3d3d3;stroke:#000000;stroke-width:1.77165365"
       d="m 60.116126,-518.81972 h 28.34646 v 14.17322 h 28.346454 v -14.17322 h 28.34647 v 14.17322 h 28.34646 v -14.17322 h 28.34646 v 14.17322 h 28.34645 v -14.17322 h 28.34646 v 14.17322 h 28.34646 v -14.17322 h 28.34645 v 14.17322 h 28.34646 v -14.17322 h 28.34646 v 14.17322 h 28.34646 v -14.17322 h 28.34645 v 14.17322 h 28.34646 v -14.17322 h 28.34647 v 14.17322 h 28.34645 v -14.17322 h 28.34646 v 14.17322 h 42.51969 v -42.51975 h -14.17323 v -30.01388 h 14.17323 v -30.01397 h -14.17323 v -30.01397 h 14.17323 v -30.01349 h -14.17323 v -30.01397 h 14.17323 v -30.01395 h -14.17323 v -30.01393 h 14.17323 v -30.01394 h -14.17323 v -30.01394 h 14.17323 v -30.01393 h -14.17323 v -30.01217 h 14.17323 v -30.01536 h -14.17323 v -30.01536 h 14.17323 v -30.01181 h -14.17323 v -30.01535 h 14.17323 v -30.01183 h -14.17323 v -30.0153 h 14.17323 v -42.5197 h -42.51969 v 14.1732 h -28.34646 v -14.1732 h -28.34645 v 14.1732 h -28.34647 v -14.1732 h -28.34646 v 14.1732 h -28.34645 v -14.1732 h -28.34646 v 14.1732 h -28.34646 v -14.1732 h -28.34646 v 14.1732 H 286.8878 v -14.1732 h -28.34646 v 14.1732 h -28.34646 v -14.1732 h -28.34645 v 14.1732 h -28.34646 v -14.1732 h -28.34646 v 14.1732 h -28.34647 v -14.1732 H 88.462586 v 14.1732 h -28.34646 v -14.1732 h -42.51968 v 42.5197 h 14.17315 v 30.0153 h -14.17315 v 30.01183 h 14.17315 v 30.01535 h -14.17315 v 30.01181 h 14.17315 v 30.01536 h -14.17315 v 30.01536 h 14.17315 v 30.01217 h -14.17315 v 30.01393 h 14.17315 l 7e-5,30.01394 h -14.17322 v 30.01394 h 14.17322 v 30.01393 h -14.17322 v 30.01358 h 14.17322 v 30.01397 h -14.17322 v 30.01386 h 14.17322 v 30.01397 h -14.17322 v 30.01397 h 14.17322 v 30.01388 h -14.17322 v 42.51975 h 42.51968 z"
       id="path5104"
       inkscape:connector-curvature="0" />
    <text
       xml:space="preserve"
       style="font-style:normal;font-weight:normal;font-size:154.21380615px;line-height:125%;font-family:sans-serif;letter-spacing:0px;word-spacing:0px;fill:#000000;fill-opacity:1;stroke:none;stroke-width:10.28092194px;stroke-linecap:butt;stroke-linejoin:miter;stroke-opacity:1"
       x="43.663258"
       y="-601.52911"
       id="text5136"
       transform="scale(0.92592669,1.0799991)"><tspan
         sodipodi:role="line"
         id="tspan5134"
         x="43.663258"
         y="-601.52911"
         style="stroke-width:10.28092194px">Bottom</tspan></text>
  </g>
</svg>
